<?xml version="1.0" encoding="utf-8"?>
<!-- Generator: Adobe Illustrator 19.2.0, SVG Export Plug-In . SVG Version: 6.00 Build 0)  -->
<svg version="1.1" id="Layer_1" xmlns="http://www.w3.org/2000/svg" xmlns:xlink="http://www.w3.org/1999/xlink" x="0px" y="0px"
	 viewBox="0 0 145 60" style="enable-background:new 0 0 145 60;" xml:space="preserve">
<style type="text/css">
	.st0{fill:#9EC8EB;}
	.st1{fill:#414141;}
	.st2{fill-rule:evenodd;clip-rule:evenodd;fill:#414141;}
	.st3{fill:#FFFFFF;}
</style>
<g id="XMLID_2182_">
	<g id="XMLID_2200_">
		<path id="XMLID_2274_" class="st0" d="M30.1,45.4v-5.9h-0.8c-0.1,0.5-0.5,1.8-0.5,1.8c-0.5-0.3-1-0.6-1.6-0.8
			c-1.3-0.6-2.7-0.9-4-0.9c-1.8,0-3.4,0.4-4.9,1.2c-1.5,0.8-2.6,1.9-3.5,3.4c-0.8,1.4-1.3,3.1-1.3,4.8c0,3.3,2.3,6.6,5.1,7.8
			c2.4,1,5,1,7.9-0.1c0.7-0.3,1-0.5,0.9-0.7c0-0.1-0.2-0.3-0.4-0.2c-0.3,0.1-0.5,0.2-0.8,0.3c-2.1,0.8-10.4,2-9.5-8.9
			c0.1-1.2,0.4-2.3,0.7-3.1c0.6-1.3,1.4-2.3,2.4-2.9c1-0.6,2.2-0.9,3.5-0.9c1.5,0,2.8,0.4,3.9,1.2c1.1,0.8,1.9,2.1,2.5,3.9H30.1z"/>
		<path id="XMLID_2273_" class="st1" d="M42.6,47.9c0,0.7-0.2,1.2-0.7,1.5c-0.4,0.3-1,0.5-1.6,0.5c-0.6,0-1.2-0.2-1.6-0.5
			c-0.4-0.3-0.7-0.8-0.7-1.5v-3.5h0.7v3.3c0,0.3,0,0.6,0.1,0.7c0,0.2,0.1,0.3,0.3,0.4c0.3,0.3,0.7,0.5,1.2,0.5s0.9-0.2,1.2-0.5
			c0.1-0.1,0.2-0.3,0.3-0.4c0-0.1,0.1-0.4,0.1-0.7v-3.3h0.7V47.9z"/>
		<path id="XMLID_2272_" class="st1" d="M49.1,49.8h-0.8l-2.9-4.2c0,0,0,0,0-0.1c0,0,0-0.1-0.1-0.1c0-0.1-0.1-0.2-0.2-0.3v4.7h-0.7
			v-5.4h0.9l2.9,4.1c0,0,0,0,0,0.1c0,0,0,0,0,0.1c0,0,0,0.1,0,0.1c0,0,0,0.1,0.1,0.2c0,0,0,0,0,0c0,0,0,0,0,0v-4.6h0.7V49.8z"/>
		<rect id="XMLID_2271_" x="51" y="44.4" class="st1" width="0.7" height="5.4"/>
		<path id="XMLID_2270_" class="st1" d="M57.7,44.4l-2.2,5.5h-0.4l-2.3-5.5h0.8l1.7,4.2c0,0.1,0,0.2,0.1,0.3c0-0.1,0-0.2,0.1-0.3
			l1.6-4.2H57.7z"/>
		<polygon id="XMLID_2269_" class="st1" points="62.1,49.8 58.8,49.8 58.8,44.4 62,44.4 62,45 59.5,45 59.5,46.8 61.6,46.8 
			61.6,47.3 59.5,47.3 59.5,49.2 62.1,49.2 		"/>
		<path id="XMLID_2266_" class="st1" d="M66.3,45.9c0-0.3-0.1-0.6-0.3-0.7C65.9,45,65.6,45,65.2,45h-0.9v1.9h0.9
			C65.9,46.9,66.3,46.6,66.3,45.9 M67.4,49.8h-0.8L65,47.5h-0.8v2.3h-0.7v-5.4h1.8c0.2,0,0.3,0,0.5,0c0.1,0,0.3,0,0.4,0.1
			c0.1,0,0.2,0.1,0.3,0.1c0.1,0.1,0.2,0.1,0.3,0.2c0.3,0.3,0.5,0.6,0.5,1c0,0.4-0.2,0.8-0.5,1.1c-0.2,0.2-0.5,0.3-0.9,0.4L67.4,49.8
			z"/>
		<path id="XMLID_2265_" class="st1" d="M71.9,44.8l-0.3,0.6c-0.1-0.1-0.2-0.1-0.3-0.2c-0.1,0-0.2-0.1-0.3-0.1
			c-0.3-0.1-0.5-0.1-0.8-0.1c-0.3,0-0.6,0.1-0.8,0.2c-0.2,0.1-0.3,0.3-0.3,0.5c0,0.2,0.1,0.4,0.3,0.5c0.2,0.1,0.6,0.4,1.2,0.7
			c0.4,0.2,0.7,0.4,0.9,0.5c0.3,0.2,0.4,0.6,0.4,1c0,0.5-0.2,0.8-0.5,1.1c-0.3,0.3-0.8,0.4-1.4,0.4c-0.4,0-0.8-0.1-1.1-0.2
			c-0.2-0.1-0.4-0.2-0.7-0.4l0.4-0.5c0.1,0.1,0.3,0.2,0.4,0.2c0.1,0.1,0.2,0.1,0.3,0.1c0.3,0.1,0.5,0.1,0.8,0.1
			c0.4,0,0.6-0.1,0.8-0.2c0.2-0.1,0.3-0.3,0.3-0.6c0-0.2,0-0.3-0.1-0.4c-0.1-0.2-0.3-0.3-0.5-0.4c-0.1,0-0.2-0.1-0.3-0.2
			c-0.2-0.1-0.4-0.2-0.6-0.3c-0.8-0.4-1.2-0.9-1.2-1.4c0-0.4,0.2-0.8,0.5-1c0.4-0.3,0.8-0.4,1.4-0.4c0.4,0,0.7,0,1,0.1
			C71.4,44.5,71.6,44.6,71.9,44.8"/>
		<rect id="XMLID_2264_" x="73.3" y="44.4" class="st1" width="0.7" height="5.4"/>
		<path id="XMLID_2261_" class="st1" d="M80,47.1c0-0.6-0.2-1.1-0.6-1.5c-0.4-0.4-1-0.6-1.6-0.6h-1.1v4.2h1.1c0.7,0,1.2-0.2,1.6-0.5
			c0.1-0.1,0.2-0.2,0.3-0.4c0.1-0.1,0.2-0.3,0.2-0.4c0.1-0.1,0.1-0.3,0.1-0.4C80,47.4,80,47.2,80,47.1 M80.8,47.1
			c0,0.7-0.3,1.4-0.8,1.9c-0.3,0.3-0.6,0.5-0.9,0.6c-0.3,0.1-0.7,0.2-1.2,0.2h-1.9v-5.4h1.9c0.8,0,1.5,0.3,2.1,0.7
			C80.5,45.7,80.8,46.3,80.8,47.1"/>
		<path id="XMLID_2258_" class="st1" d="M84.8,47.6l-0.9-2.5l-0.9,2.5H84.8z M86.4,49.8h-0.8L85,48.2h-2.3l-0.6,1.6h-0.8l2.2-5.5
			h0.8L86.4,49.8z"/>
		<path id="XMLID_2255_" class="st1" d="M91.5,47.1c0-0.6-0.2-1.1-0.6-1.5c-0.4-0.4-1-0.6-1.6-0.6h-1.1v4.2h1.1
			c0.7,0,1.2-0.2,1.6-0.5c0.1-0.1,0.2-0.2,0.3-0.4c0.1-0.1,0.2-0.3,0.2-0.4c0.1-0.1,0.1-0.3,0.1-0.4C91.5,47.4,91.5,47.2,91.5,47.1
			 M92.2,47.1c0,0.7-0.3,1.4-0.8,1.9c-0.3,0.3-0.6,0.5-0.9,0.6c-0.3,0.1-0.7,0.2-1.2,0.2h-1.9v-5.4h1.9c0.8,0,1.5,0.3,2.1,0.7
			C92,45.7,92.2,46.3,92.2,47.1"/>
		<polygon id="XMLID_2254_" class="st1" points="96.9,49.8 93.6,49.8 93.6,44.4 96.9,44.4 96.9,45 94.3,45 94.3,46.8 96.4,46.8 
			96.4,47.3 94.3,47.3 94.3,49.2 96.9,49.2 		"/>
		<path id="XMLID_2251_" class="st1" d="M104.6,47.1c0-0.6-0.2-1.1-0.6-1.5c-0.4-0.4-1-0.6-1.6-0.6h-1.1v4.2h1.1
			c0.7,0,1.2-0.2,1.6-0.5c0.1-0.1,0.2-0.2,0.3-0.4c0.1-0.1,0.2-0.3,0.2-0.4c0.1-0.1,0.1-0.3,0.1-0.4
			C104.6,47.4,104.6,47.2,104.6,47.1 M105.4,47.1c0,0.7-0.3,1.4-0.8,1.9c-0.3,0.3-0.6,0.5-0.9,0.6c-0.3,0.1-0.7,0.2-1.2,0.2h-1.9
			v-5.4h1.9c0.8,0,1.5,0.3,2.1,0.7C105.1,45.7,105.4,46.3,105.4,47.1"/>
		<path id="XMLID_2248_" class="st1" d="M111.3,47.1c0-0.6-0.2-1.1-0.6-1.5c-0.4-0.4-0.9-0.7-1.5-0.7c-0.6,0-1.1,0.2-1.5,0.7
			c-0.4,0.4-0.6,0.9-0.6,1.5c0,0.6,0.2,1.1,0.6,1.6c0.4,0.4,0.9,0.6,1.5,0.6c0.6,0,1.1-0.2,1.5-0.6
			C111.1,48.2,111.3,47.7,111.3,47.1 M112.1,47.1c0,0.8-0.3,1.5-0.8,2c-0.5,0.5-1.2,0.8-2.1,0.8c-0.8,0-1.5-0.3-2.1-0.8
			c-0.5-0.5-0.8-1.2-0.8-2c0-0.8,0.3-1.5,0.8-2c0.5-0.5,1.2-0.8,2.1-0.8c0.8,0,1.5,0.3,2.1,0.8C111.8,45.6,112.1,46.3,112.1,47.1"/>
		<path id="XMLID_2245_" class="st1" d="M118.6,46c0-0.4-0.1-0.6-0.3-0.8c-0.2-0.2-0.5-0.2-0.9-0.2h-1v2.2c0.3,0,0.6,0,0.8,0
			c0.3,0,0.6,0,0.8-0.1c0.2-0.1,0.4-0.2,0.5-0.4C118.5,46.5,118.6,46.3,118.6,46 M119.3,46c0,0.3,0,0.5-0.1,0.8
			c-0.1,0.2-0.2,0.4-0.4,0.6s-0.4,0.3-0.6,0.4c-0.3,0.1-0.5,0.1-0.9,0.1c-0.1,0-0.2,0-0.3,0c-0.1,0-0.3,0-0.6,0v2h-0.7v-5.4h1.8
			c0.6,0,1.1,0.1,1.4,0.4C119.2,45.1,119.3,45.5,119.3,46"/>
		<path id="XMLID_2242_" class="st1" d="M125,47.1c0-0.6-0.2-1.1-0.6-1.5c-0.4-0.4-0.9-0.7-1.5-0.7c-0.6,0-1.1,0.2-1.5,0.7
			c-0.4,0.4-0.6,0.9-0.6,1.5c0,0.6,0.2,1.1,0.6,1.6c0.4,0.4,0.9,0.6,1.5,0.6c0.6,0,1.1-0.2,1.5-0.6C124.8,48.2,125,47.7,125,47.1
			 M125.8,47.1c0,0.8-0.3,1.5-0.8,2c-0.5,0.5-1.2,0.8-2.1,0.8c-0.8,0-1.5-0.3-2.1-0.8c-0.5-0.5-0.8-1.2-0.8-2c0-0.8,0.3-1.5,0.8-2
			c0.5-0.5,1.2-0.8,2.1-0.8c0.8,0,1.5,0.3,2.1,0.8C125.5,45.6,125.8,46.3,125.8,47.1"/>
		<path id="XMLID_2239_" class="st1" d="M130,45.9c0-0.3-0.1-0.6-0.3-0.7c-0.1-0.1-0.4-0.2-0.8-0.2h-0.9v1.9h0.9
			C129.6,46.9,130,46.6,130,45.9 M131.1,49.8h-0.8l-1.6-2.3h-0.8v2.3h-0.7v-5.4h1.8c0.2,0,0.3,0,0.5,0c0.1,0,0.2,0,0.4,0.1
			c0.1,0,0.2,0.1,0.3,0.1c0.1,0.1,0.2,0.1,0.3,0.2c0.3,0.3,0.5,0.6,0.5,1c0,0.4-0.2,0.8-0.5,1.1c-0.2,0.2-0.5,0.3-0.9,0.4
			L131.1,49.8z"/>
		<polygon id="XMLID_2238_" class="st1" points="136,45 134.1,45 134.1,49.8 133.4,49.8 133.4,45 131.4,45 131.4,44.4 136,44.4 		
			"/>
		<path id="XMLID_2235_" class="st1" d="M141.5,47.1c0-0.6-0.2-1.1-0.6-1.5c-0.4-0.4-0.9-0.7-1.5-0.7c-0.6,0-1.1,0.2-1.5,0.7
			c-0.4,0.4-0.6,0.9-0.6,1.5c0,0.6,0.2,1.1,0.6,1.6c0.4,0.4,0.9,0.6,1.5,0.6c0.6,0,1.1-0.2,1.5-0.6
			C141.3,48.2,141.5,47.7,141.5,47.1 M142.3,47.1c0,0.8-0.3,1.5-0.8,2c-0.5,0.5-1.2,0.8-2.1,0.8c-0.8,0-1.5-0.3-2.1-0.8
			c-0.5-0.5-0.8-1.2-0.8-2c0-0.8,0.3-1.5,0.8-2c0.5-0.5,1.2-0.8,2.1-0.8c0.8,0,1.5,0.3,2.1,0.8C142.1,45.6,142.3,46.3,142.3,47.1"/>
		<polygon id="XMLID_2234_" class="st1" points="41.7,35.7 39.2,35.7 39.2,37 41.2,37 41.2,37.9 39.2,37.9 39.2,40.2 38.1,40.2 
			38.1,34.8 41.7,34.8 		"/>
		<path id="XMLID_2231_" class="st1" d="M45.2,38L44.5,36L43.8,38H45.2z M47.1,40.2h-1.2l-0.5-1.3h-1.9L43,40.2h-1.2l2.1-5.4h1
			L47.1,40.2z"/>
		<path id="XMLID_2230_" class="st1" d="M52.2,35.2L51.8,36c-0.4-0.2-0.8-0.4-1.3-0.4c-0.6,0-1,0.2-1.4,0.5
			c-0.4,0.3-0.5,0.7-0.5,1.3c0,0.6,0.2,1,0.6,1.4c0.4,0.3,0.9,0.5,1.5,0.5c0.4,0,0.8-0.1,1.3-0.3l0.2,0.9c-0.3,0.1-0.6,0.2-0.8,0.3
			c-0.1,0-0.3,0-0.4,0.1c-0.2,0-0.3,0-0.5,0c-0.9,0-1.6-0.2-2.1-0.7c-0.6-0.5-1-1.3-1-2.1c0-0.8,0.3-1.5,0.9-2
			c0.5-0.5,1.3-0.7,2.2-0.7C51.1,34.7,51.7,34.9,52.2,35.2"/>
		<path id="XMLID_2229_" class="st1" d="M57.9,38.1c0,0.5-0.1,0.9-0.2,1.1c-0.1,0.3-0.3,0.5-0.6,0.7c-0.4,0.3-0.9,0.4-1.6,0.4
			c-0.7,0-1.2-0.1-1.6-0.4c-0.3-0.2-0.5-0.4-0.6-0.7c-0.1-0.3-0.2-0.6-0.2-1.1v-3.3h1.1v3.3c0,0.8,0.5,1.2,1.4,1.2
			c0.9,0,1.3-0.4,1.3-1.2v-3.3h1.1V38.1z"/>
		<polygon id="XMLID_2228_" class="st1" points="62.8,40.2 59.3,40.2 59.3,34.8 60.4,34.8 60.4,39.3 62.8,39.3 		"/>
		<path id="XMLID_2225_" class="st1" d="M67.7,37.5c0-0.7-0.2-1.1-0.7-1.5c-0.3-0.2-0.8-0.3-1.4-0.3h-0.9v3.6h0.9
			c0.7,0,1.2-0.2,1.5-0.5C67.5,38.5,67.7,38,67.7,37.5 M68.9,37.5c0,0.7-0.3,1.4-0.8,1.9c-0.5,0.5-1.3,0.8-2.3,0.8h-2.1v-5.4h2.1
			c1,0,1.8,0.3,2.3,0.8C68.6,36.1,68.9,36.7,68.9,37.5"/>
		<path id="XMLID_2222_" class="st1" d="M72.4,38L71.7,36L71,38H72.4z M74.3,40.2h-1.2l-0.5-1.3h-1.9l-0.5,1.3h-1.2l2.1-5.4h1
			L74.3,40.2z"/>
		<path id="XMLID_2219_" class="st1" d="M79.1,37.5c0-0.7-0.2-1.1-0.7-1.5c-0.3-0.2-0.8-0.3-1.4-0.3h-0.9v3.6h0.9
			c0.7,0,1.2-0.2,1.5-0.5C79,38.5,79.1,38,79.1,37.5 M80.3,37.5c0,0.7-0.3,1.4-0.8,1.9c-0.5,0.5-1.3,0.8-2.3,0.8h-2.1v-5.4h2.1
			c1,0,1.8,0.3,2.3,0.8C80.1,36.1,80.3,36.7,80.3,37.5"/>
		<polygon id="XMLID_2218_" class="st1" points="85,40.2 81.3,40.2 81.3,34.8 84.9,34.8 84.9,35.7 82.5,35.7 82.5,37 84.4,37 
			84.4,37.9 82.5,37.9 82.5,39.3 85,39.3 		"/>
		<path id="XMLID_2215_" class="st1" d="M92.3,37.5c0-0.7-0.2-1.1-0.7-1.5c-0.3-0.2-0.8-0.3-1.4-0.3h-0.9v3.6h0.9
			c0.7,0,1.2-0.2,1.5-0.5C92.1,38.5,92.3,38,92.3,37.5 M93.5,37.5c0,0.7-0.3,1.4-0.8,1.9c-0.5,0.5-1.3,0.8-2.3,0.8h-2.1v-5.4h2.1
			c1,0,1.8,0.3,2.3,0.8C93.2,36.1,93.5,36.7,93.5,37.5"/>
		<polygon id="XMLID_2214_" class="st1" points="98.1,40.2 94.5,40.2 94.5,34.8 98,34.8 98,35.7 95.6,35.7 95.6,37 97.6,37 
			97.6,37.9 95.6,37.9 95.6,39.3 98.1,39.3 		"/>
		<path id="XMLID_2213_" class="st1" d="M105.7,35.2l-0.4,0.8c-0.4-0.2-0.8-0.4-1.3-0.4c-0.6,0-1,0.2-1.4,0.5
			c-0.4,0.3-0.5,0.7-0.5,1.3c0,0.6,0.2,1,0.6,1.4c0.4,0.3,0.9,0.5,1.5,0.5c0.4,0,0.8-0.1,1.3-0.3l0.2,0.9c-0.3,0.1-0.6,0.2-0.8,0.3
			c-0.1,0-0.3,0-0.4,0.1c-0.2,0-0.3,0-0.5,0c-0.9,0-1.6-0.2-2.1-0.7c-0.6-0.5-1-1.3-1-2.1c0-0.8,0.3-1.5,0.9-2
			c0.5-0.5,1.3-0.7,2.2-0.7C104.6,34.7,105.2,34.9,105.7,35.2"/>
		<rect id="XMLID_2212_" x="106.7" y="34.8" class="st1" width="1.1" height="5.4"/>
		<path id="XMLID_2209_" class="st1" d="M113,40.2h-3.6v-5.4h3.5v0.9h-2.4V37h2v0.9h-2v1.4h2.5V40.2z M112.5,34.5h-0.8l-0.6-0.5
			l-0.6,0.5h-0.8l1-1h0.7L112.5,34.5z"/>
		<path id="XMLID_2208_" class="st1" d="M119.1,40.2h-1.2l-2.5-3.5c0,0,0,0,0-0.1c0,0,0-0.1-0.1-0.1c0,0,0,0,0-0.1c0,0,0,0,0-0.1
			c0-0.1-0.1-0.1-0.1-0.2v3.9h-1.1v-5.4h1.3l2.4,3.5c0,0,0,0,0.1,0.1c0,0.1,0.1,0.1,0.1,0.1l0.1,0.1l0.1,0.1v-4h1V40.2z"/>
		<path id="XMLID_2207_" class="st1" d="M125,35.2l-0.4,0.8c-0.4-0.2-0.8-0.4-1.3-0.4c-0.6,0-1,0.2-1.4,0.5
			c-0.4,0.3-0.5,0.7-0.5,1.3c0,0.6,0.2,1,0.6,1.4c0.4,0.3,0.9,0.5,1.5,0.5c0.4,0,0.8-0.1,1.3-0.3l0.2,0.9c-0.3,0.1-0.6,0.2-0.8,0.3
			c-0.1,0-0.3,0-0.4,0.1c-0.2,0-0.3,0-0.5,0c-0.9,0-1.6-0.2-2.1-0.7c-0.6-0.5-1-1.3-1-2.1c0-0.8,0.3-1.5,0.9-2
			c0.5-0.5,1.3-0.7,2.2-0.7C123.9,34.7,124.5,34.9,125,35.2"/>
		<rect id="XMLID_2206_" x="126" y="34.8" class="st1" width="1.1" height="5.4"/>
		<path id="XMLID_2203_" class="st1" d="M131.2,38l-0.7-1.9l-0.7,1.9H131.2z M133.1,40.2h-1.2l-0.5-1.3h-1.9l-0.5,1.3h-1.2l2.1-5.4
			h1L133.1,40.2z"/>
		<path id="XMLID_2202_" class="st1" d="M137.5,35.2l-0.4,0.9c-0.6-0.3-1.1-0.4-1.5-0.4c-0.3,0-0.5,0-0.6,0.1
			c-0.2,0.1-0.2,0.2-0.2,0.4c0,0.2,0.2,0.4,0.6,0.6c0.9,0.4,1.5,0.8,1.7,1c0.3,0.2,0.4,0.6,0.4,1c0,0.5-0.2,0.9-0.5,1.1
			c-0.4,0.3-0.9,0.4-1.5,0.4c-0.1,0-0.2,0-0.3,0c-0.1,0-0.2,0-0.3,0c-0.3,0-0.7-0.2-1.2-0.4c0,0-0.1,0-0.1-0.1
			c-0.1,0-0.1-0.1-0.2-0.1l0.5-0.9c0.2,0.1,0.4,0.2,0.5,0.2c0.1,0.1,0.3,0.1,0.3,0.1c0.3,0.1,0.6,0.2,0.8,0.2s0.5,0,0.6-0.1
			c0.1-0.1,0.2-0.2,0.2-0.4c0-0.2-0.2-0.4-0.5-0.6l-0.9-0.5c-0.5-0.3-0.9-0.5-1.1-0.7c-0.2-0.2-0.3-0.5-0.3-0.8
			c0-0.3,0.1-0.5,0.2-0.7c0-0.1,0.1-0.1,0.2-0.2c0.1-0.1,0.2-0.1,0.2-0.2c0.4-0.2,0.9-0.4,1.5-0.4c0.4,0,0.8,0,1.1,0.1
			c0.1,0,0.2,0.1,0.4,0.1C137.2,35,137.4,35.1,137.5,35.2"/>
		<path id="XMLID_2201_" class="st1" d="M8.6,37.7V47h2v-5.7h2.2c1.1,0,1.8,0.8,1.8,1.5h0.3v-3.4h-0.5l-0.3,1.1l-3.4,0v-3.5
			c0-0.8,0.2-0.9,1.2-0.9h4v-0.8H6.9v0.4C8.6,36,8.6,36,8.6,37.7"/>
	</g>
	<g id="XMLID_2183_">
		<path id="XMLID_2197_" class="st2" d="M38,7h-2.5V6.6h7.2c2.1,0,3.7,0.4,4.9,1.2c1.2,0.8,1.8,2,1.8,3.8c0,1.7-0.6,2.9-1.9,3.7
			c-1.3,0.8-2.8,1.2-4.5,1.2c-1,0-1.8-0.1-2.4-0.4v8h2.6v0.4h-7.7v-0.4H38V7L38,7z M40.6,15.6c0.2,0.1,0.5,0.3,0.9,0.4
			c0.3,0.1,0.7,0.2,1.1,0.2c1.1,0,2-0.3,2.9-1c0.8-0.7,1.3-1.8,1.3-3.3c0-1.6-0.4-2.9-1.1-3.6C44.8,7.4,43.6,7,42.1,7h-1.6V15.6
			L40.6,15.6z"/>
		<path id="XMLID_2194_" class="st2" d="M59.7,6.2c2.2,0,4,0.9,5.6,2.7c1.6,1.8,2.4,4,2.4,6.6c0,2.6-0.8,4.8-2.4,6.6
			c-1.6,1.8-3.5,2.7-5.7,2.7c-2.2,0-4-0.9-5.6-2.7c-1.6-1.8-2.4-4-2.4-6.6c0-2.6,0.8-4.8,2.4-6.6C55.7,7.1,57.5,6.2,59.7,6.2
			L59.7,6.2z M59.7,24.5c1.4,0,2.4-0.5,3.2-1.4s1.3-2.1,1.5-3.4c0.3-1.3,0.4-2.7,0.4-4.1c0-1.5-0.1-2.9-0.4-4.1
			C64.2,10.1,63.7,9,63,8.1c-0.8-1-1.8-1.4-3.3-1.4c-1.4,0-2.4,0.5-3.2,1.4c-0.8,1-1.3,2.1-1.5,3.4c-0.3,1.3-0.4,2.7-0.4,4.1
			c0,1.5,0.1,2.9,0.4,4.1c0.2,1.3,0.8,2.4,1.5,3.4C57.2,24,58.3,24.5,59.7,24.5L59.7,24.5z"/>
		<path id="XMLID_2191_" class="st2" d="M72.1,7h-2.5V6.6h7.8c1.8,0,3.3,0.3,4.4,0.9c1.1,0.6,1.7,1.8,1.7,3.6c0,1.4-0.6,2.4-1.7,3
			c-1.1,0.6-2.4,1-3.8,1.2c1.6,0.2,2.8,0.5,3.5,1.1c0.7,0.6,1.2,1.6,1.4,3.2l0.4,3.1c0.1,0.6,0.2,1.1,0.5,1.3
			c0.2,0.2,0.5,0.3,0.8,0.3c0.3,0,0.6-0.1,1-0.3l0.2,0.3c-0.3,0.1-0.6,0.2-0.9,0.2c-0.3,0.1-0.7,0.1-1.2,0.1c-1.4,0-2.3-0.3-2.7-1
			c-0.4-0.7-0.7-1.9-0.9-3.6l-0.2-1.5c-0.1-1-0.4-1.7-0.9-2.3c-0.5-0.5-1.4-0.8-2.7-0.8h-1.7v8.6h2.6v0.4h-7.7v-0.4h2.5V7L72.1,7z
			 M74.7,15.1H76c1.6,0,2.8-0.3,3.6-0.9c0.8-0.6,1.2-1.6,1.2-3.1c0-1.2-0.3-2.2-0.9-3C79.2,7.4,78.1,7,76.4,7h-1.7V15.1L74.7,15.1z"
			/>
		<path id="XMLID_2190_" class="st1" d="M93.1,7h-0.5c-2.3,0-3.8,0.3-4.5,0.9c-0.7,0.6-1,1.9-1,4h-0.4V6.6h15.6v5.3h-0.4
			c0-2.1-0.3-3.4-1-4C100.1,7.3,98.6,7,96.3,7h-0.6v17.1h2.6v0.4h-7.8v-0.4h2.6V7L93.1,7z"/>
		<path id="XMLID_2187_" class="st2" d="M112.1,6.2c2.2,0,4,0.9,5.6,2.7c1.6,1.8,2.4,4,2.4,6.6c0,2.6-0.8,4.8-2.4,6.6
			c-1.6,1.8-3.5,2.7-5.7,2.7c-2.2,0-4-0.9-5.6-2.7c-1.6-1.8-2.4-4-2.4-6.6c0-2.6,0.8-4.8,2.4-6.6C108,7.1,109.9,6.2,112.1,6.2
			L112.1,6.2z M112.1,24.5c1.4,0,2.4-0.5,3.2-1.4c0.8-1,1.3-2.1,1.5-3.4c0.3-1.3,0.4-2.7,0.4-4.1c0-1.5-0.1-2.9-0.4-4.1
			c-0.2-1.3-0.8-2.4-1.5-3.4c-0.8-1-1.8-1.4-3.3-1.4c-1.4,0-2.4,0.5-3.2,1.4c-0.8,1-1.3,2.1-1.5,3.4c-0.3,1.3-0.4,2.7-0.4,4.1
			c0,1.5,0.1,2.9,0.4,4.1c0.2,1.3,0.8,2.4,1.5,3.4C109.6,24,110.7,24.5,112.1,24.5L112.1,24.5z"/>
		<polygon id="XMLID_2186_" class="st1" points="2.7,2.5 32.9,2.5 32.9,28.6 2.7,28.6 2.7,2.5 		"/>
		<path id="XMLID_2185_" class="st3" d="M6.5,6.6h8V7h-2.1v11.2c0,1.9,0.3,3.3,0.9,4.3c0.6,1,1.8,1.6,3.5,1.5c1.4-0.1,2.1-0.4,3-1.3
			c0.9-0.9,1.3-2.1,1.3-3.8V9.2c0-0.8-0.1-1.3-0.4-1.6C20.6,7.2,20.4,7,19.8,7H19V6.6h5V7h-0.7c-0.5,0-0.8,0.2-1,0.5
			c-0.2,0.3-0.3,0.9-0.3,1.6v9.5c0,1.9-0.6,3.4-1.7,4.5c-1.1,1.1-2.8,1.6-5,1.6c-2.1,0-3.8-0.6-5-1.7c-1.2-1.1-1.9-2.7-1.9-4.6V7h-2
			V6.6L6.5,6.6z"/>
		<path id="XMLID_2184_" class="st3" d="M26.8,21.1c0.5,0,0.9,0.2,1.3,0.5c0.3,0.3,0.5,0.8,0.5,1.3s-0.2,0.9-0.5,1.3
			c-0.3,0.3-0.8,0.5-1.3,0.5c-0.5,0-0.9-0.2-1.3-0.5c-0.3-0.3-0.5-0.8-0.5-1.3s0.2-0.9,0.5-1.3C25.9,21.3,26.3,21.1,26.8,21.1
			L26.8,21.1z"/>
	</g>
</g>
</svg>
